<svg xmlns="http://www.w3.org/2000/svg" viewBox="155 313 255 250" fill="#f97316">
  <!-- Dashed circle border -->
  <circle cx="282.4" cy="437" r="115.5" fill="none" stroke="#f97316" stroke-width="6.2" stroke-dasharray="12.5 12.5" stroke-miterlimit="10"/>
  <!-- V -->
  <path d="M190.1,400h18.6l20,53.9,20-53.9h18.2l-31,77.1h-14.9l-31-77.1h0Z"/>
  <!-- LIGA -->
  <path d="M224.5,487.9h7.2v26.2h16.3v6.5h-23.5v-32.7Z"/>
  <path d="M253.8,487.9h7.2v32.7h-7.2v-32.7Z"/>
  <path d="M267.7,504.3h0c0-9.4,7.2-17,17.1-17s9.4,1.6,12.8,4.5l-4.5,5.5c-2.5-2.1-4.8-3.3-8.5-3.3s-9.4,4.6-9.4,10.2h0c0,6.1,4.1,10.5,9.9,10.5s5-.7,6.8-2v-4.7h-7.2v-6.2h14.2v14.2c-3.4,2.8-8,5.2-14,5.2-10.2,0-17.2-7.1-17.2-16.8Z"/>
  <path d="M316.9,487.7h6.6l14,32.9h-7.5l-3-7.3h-13.8l-3,7.3h-7.3l14-32.9ZM324.5,506.9l-4.3-10.6-4.3,10.6h8.7Z"/>
  <!-- P -->
  <path d="M257.2,400h36.9c18.3,0,23.7,10.8,23.7,26.5v.2c0,17.7-13.8,26.9-31,26.9h-12.8v23h-16.8v-76.6h0ZM287.4,438.6c8.4,0,13.3-5,13.3-11.6v-.2c0-7.5-5.3-11.6-13.7-11.6h-13v23.4h13.4Z"/>
  <!-- V -->
  <path d="M293.3,400h18.6l20,53.9,20-53.9h18.2l-31,77.1h-14.9l-31-77.1h0Z"/>
  <!-- Ball icon -->
  <path d="M279.9,379.3s4.3-5.5,7.8-9.5c-1.8-2.5-6.6-10.5-6.6-10.5,0,0-10.2,2.4-11.4,2.5-.3,1-1.2,9.7-.8,12.5.7.2,11,5,11,5Z"/>
  <path d="M267.6,345.8c-2.4-1.8-3.3-2.2-3.3-2.2,0,0-8.5,6.3-9,15,1.7-1.1,6.6-2.8,6.6-2.8,0,0,1.5-5.9,5.7-10h0Z"/>
  <path d="M308.8,356.6c-2.6-9.7-11.1-17.5-20.8-19.4-1-.3-1.9-.5-2.5-.6-2.7,1.3-6.2,3.4-6.6,4.2.3,0,5.2,4.9,7,7.9,1.5-.4,7.7-1.3,10.8-.4,0,0,.3-4.3-.2-6.7,5.7,4.2,9.4,10.4,10.6,17.1-2.1-.8-5.8-1.9-5.8-1.9l-4.9,11.6,3.1,7.2,6.6-3.7c-1.5,4.4-4.1,8.4-8.1,11.8-1.5,1.2-3.1,2.3-4.7,3.1l.4-2.8s-6.7,1.6-11.1,1.2c-.4,0-2.9,3.3-5.8,4.2-1-.2-2-.4-2.9-.7-3.3-.9-6.4-2.5-9.1-4.6.2.1.4.2.4.2-2.2-2.4-2.1-6.4-2.3-7.8-1.4-1.4-6.1-4.8-7.7-7h0c-.5-1.8-.7-3.8-.9-5.7-.2,3.9.5,7.8,2,11.4,5.1,12.8,19.7,19.8,32.9,16.1,14.9-3.9,24.1-19.9,19.8-34.7h-.2Z"/>
</svg>
